<svg xmlns="http://www.w3.org/2000/svg" viewBox="0 0 1600 1000" width="1600" height="1000" role="img">
<defs>
 <radialGradient id="g" cx="24%" cy="26%" r="88%">
  <stop offset="0%" stop-color="#2C121C"/><stop offset="62%" stop-color="#0D0B0C"/><stop offset="100%" stop-color="#0D0B0C"/>
 </radialGradient>
</defs>
<rect width="1600" height="1000" fill="url(#g)"/>
<line x1="110" y1="0" x2="110" y2="1000" stroke="#F5EFEA" stroke-width="1" opacity="0.07"/><line x1="455" y1="0" x2="455" y2="1000" stroke="#F5EFEA" stroke-width="1" opacity="0.07"/><line x1="800" y1="0" x2="800" y2="1000" stroke="#F5EFEA" stroke-width="1" opacity="0.07"/><line x1="1145" y1="0" x2="1145" y2="1000" stroke="#F5EFEA" stroke-width="1" opacity="0.07"/><line x1="1490" y1="0" x2="1490" y2="1000" stroke="#F5EFEA" stroke-width="1" opacity="0.07"/>
<g opacity="0.5"><circle cx="1190" cy="420" r="52" fill="none" stroke="#C86B7B" stroke-width="3"/>
<circle cx="1330" cy="580" r="52" fill="none" stroke="#C86B7B" stroke-width="3"/>
<line x1="1226" y1="456" x2="1294" y2="544" stroke="#C86B7B" stroke-width="3" stroke-dasharray="9 9"/>
<circle cx="1260" cy="500" r="13" fill="#C86B7B"/></g>
<line x1="110" y1="196" x2="1490" y2="196" stroke="#F5EFEA" stroke-width="1" opacity="0.18"/>
<text x="110" y="168" font-family="'DejaVu Sans Mono','Liberation Mono',Menlo,monospace" font-size="25" fill="#C86B7B" letter-spacing="5">VUE 3 · CAMPUS UTILITY</text>
<text x="110" y="430" font-family="Georgia,'Iowan Old Style','Times New Roman',serif" font-size="86" fill="#F5EFEA" letter-spacing="-1.5">Matching a lost report</text><text x="110" y="534" font-family="Georgia,'Iowan Old Style','Times New Roman',serif" font-size="86" fill="#F5EFEA" letter-spacing="-1.5">to a found item.</text>
<line x1="110" y1="678" x2="290" y2="678" stroke="#C86B7B" stroke-width="4"/>
<line x1="110" y1="880" x2="1490" y2="880" stroke="#F5EFEA" stroke-width="1" opacity="0.18"/>
<text x="110" y="938" font-family="'DejaVu Sans Mono','Liberation Mono',Menlo,monospace" font-size="25" fill="#F5EFEA" opacity="0.62" letter-spacing="2.4">VUE 3 · VUEX · VUE ROUTER · AXIOS · JSON-SERVER</text>
</svg>