<svg xmlns="http://www.w3.org/2000/svg" viewBox="0 0 1600 1000" width="1600" height="1000" role="img">
<defs>
 <radialGradient id="g" cx="24%" cy="26%" r="88%">
  <stop offset="0%" stop-color="#33121F"/><stop offset="62%" stop-color="#0E0A0C"/><stop offset="100%" stop-color="#0E0A0C"/>
 </radialGradient>
</defs>
<rect width="1600" height="1000" fill="url(#g)"/>
<line x1="110" y1="0" x2="110" y2="1000" stroke="#F5EFEA" stroke-width="1" opacity="0.07"/><line x1="455" y1="0" x2="455" y2="1000" stroke="#F5EFEA" stroke-width="1" opacity="0.07"/><line x1="800" y1="0" x2="800" y2="1000" stroke="#F5EFEA" stroke-width="1" opacity="0.07"/><line x1="1145" y1="0" x2="1145" y2="1000" stroke="#F5EFEA" stroke-width="1" opacity="0.07"/><line x1="1490" y1="0" x2="1490" y2="1000" stroke="#F5EFEA" stroke-width="1" opacity="0.07"/>
<g opacity="0.5"><circle cx="1190" cy="500" r="34" fill="none" stroke="#C9596B" stroke-width="3"/>
<line x1="1224" y1="500" x2="1420" y2="206" stroke="#C9596B" stroke-width="2" opacity="0.75"/><rect x="1420" y="186" width="42" height="40" fill="none" stroke="#C9596B" stroke-width="2"/><line x1="1224" y1="500" x2="1420" y2="353" stroke="#C9596B" stroke-width="2" opacity="0.75"/><rect x="1420" y="333" width="42" height="40" fill="none" stroke="#C9596B" stroke-width="2"/><line x1="1224" y1="500" x2="1420" y2="500" stroke="#C9596B" stroke-width="2" opacity="0.75"/><rect x="1420" y="480" width="42" height="40" fill="none" stroke="#C9596B" stroke-width="2"/><line x1="1224" y1="500" x2="1420" y2="647" stroke="#C9596B" stroke-width="2" opacity="0.75"/><rect x="1420" y="627" width="42" height="40" fill="none" stroke="#C9596B" stroke-width="2"/><line x1="1224" y1="500" x2="1420" y2="794" stroke="#C9596B" stroke-width="2" opacity="0.75"/><rect x="1420" y="774" width="42" height="40" fill="none" stroke="#C9596B" stroke-width="2"/></g>
<line x1="110" y1="196" x2="1490" y2="196" stroke="#F5EFEA" stroke-width="1" opacity="0.18"/>
<text x="110" y="168" font-family="'DejaVu Sans Mono','Liberation Mono',Menlo,monospace" font-size="25" fill="#C9596B" letter-spacing="5">MICROSERVICES · OBSERVABILITY</text>
<text x="110" y="430" font-family="Georgia,'Iowan Old Style','Times New Roman',serif" font-size="86" fill="#F5EFEA" letter-spacing="-1.5">Four services</text><text x="110" y="534" font-family="Georgia,'Iowan Old Style','Times New Roman',serif" font-size="86" fill="#F5EFEA" letter-spacing="-1.5">behind one gateway.</text>
<line x1="110" y1="678" x2="290" y2="678" stroke="#C9596B" stroke-width="4"/>
<line x1="110" y1="880" x2="1490" y2="880" stroke="#F5EFEA" stroke-width="1" opacity="0.18"/>
<text x="110" y="938" font-family="'DejaVu Sans Mono','Liberation Mono',Menlo,monospace" font-size="25" fill="#F5EFEA" opacity="0.62" letter-spacing="2.4">NODE · EXPRESS · MONGODB · DOCKER · WINSTON → ELASTIC · VUE 3</text>
</svg>